<?xml version="1.0" encoding="utf-8" standalone="no"?>
<!DOCTYPE svg PUBLIC "-//W3C//DTD SVG 1.1//EN"
  "http://www.w3.org/Graphics/SVG/1.1/DTD/svg11.dtd">
<svg xmlns:xlink="http://www.w3.org/1999/xlink" width="161.145pt" height="27pt" viewBox="0 0 161.145 27" xmlns="http://www.w3.org/2000/svg" version="1.1">
 <metadata>
  <rdf:RDF xmlns:dc="http://purl.org/dc/elements/1.1/" xmlns:cc="http://creativecommons.org/ns#" xmlns:rdf="http://www.w3.org/1999/02/22-rdf-syntax-ns#">
   <cc:Work>
    <dc:type rdf:resource="http://purl.org/dc/dcmitype/StillImage"/>
    <dc:date>2024-02-24T11:41:42.614192</dc:date>
    <dc:format>image/svg+xml</dc:format>
    <dc:creator>
     <cc:Agent>
      <dc:title>Matplotlib v3.8.2, https://matplotlib.org/</dc:title>
     </cc:Agent>
    </dc:creator>
   </cc:Work>
  </rdf:RDF>
 </metadata>
 <defs>
  <style type="text/css">*{stroke-linejoin: round; stroke-linecap: butt}</style>
 </defs>
 <g id="figure_1">
  <g id="patch_1">
   <path d="M 0 27 
L 161.145 27 
L 161.145 0 
L 0 0 
L 0 27 
z
" style="fill: none"/>
  </g>
  <g id="axes_1">
   <g id="text_1">
    <!-- Sans Peur Systems -->
    <g transform="translate(0 17.77875) scale(0.24 -0.24)">
     <defs>
      <path id="PinyonScript-Regular-53" d="M 719 -6 
Q 378 -6 189 119 
Q 0 244 0 422 
Q 0 559 97 620 
Q 194 681 291 681 
Q 344 681 395 647 
Q 447 613 447 538 
Q 447 478 394 429 
Q 341 381 269 381 
Q 175 381 125 413 
L 125 397 
Q 125 259 283 164 
Q 441 69 669 69 
Q 1003 69 1272 236 
Q 1541 403 1769 678 
Q 1997 953 2201 1287 
Q 2406 1622 2609 1959 
L 2672 2063 
Q 2178 2081 1789 2211 
Q 1400 2341 1183 2566 
Q 966 2791 984 3088 
Q 1000 3366 1184 3602 
Q 1369 3838 1676 4011 
Q 1984 4184 2373 4281 
Q 2763 4378 3191 4378 
Q 3422 4378 3595 4334 
Q 3769 4291 3769 4247 
Q 3769 4234 3731 4234 
Q 3709 4234 3689 4239 
Q 3669 4244 3644 4247 
Q 3544 4272 3439 4289 
Q 3334 4306 3188 4306 
Q 2825 4306 2476 4214 
Q 2128 4122 1842 3953 
Q 1556 3784 1382 3550 
Q 1209 3316 1194 3028 
Q 1181 2841 1342 2641 
Q 1503 2441 1847 2300 
Q 2191 2159 2722 2141 
Q 3469 3316 4094 3847 
Q 4719 4378 5281 4378 
Q 5469 4378 5578 4278 
Q 5688 4178 5678 3991 
Q 5666 3750 5467 3450 
Q 5269 3150 4928 2862 
Q 4588 2575 4144 2362 
Q 3700 2150 3191 2084 
Q 2925 1675 2650 1298 
Q 2375 922 2076 628 
Q 1778 334 1442 164 
Q 1106 -6 719 -6 
z
M 3250 2172 
Q 3700 2247 4103 2451 
Q 4506 2656 4818 2928 
Q 5131 3200 5314 3484 
Q 5497 3769 5509 4003 
Q 5525 4172 5444 4237 
Q 5363 4303 5278 4300 
Q 4891 4288 4455 3831 
Q 4019 3375 3472 2516 
Q 3416 2428 3359 2343 
Q 3303 2259 3250 2172 
z
" transform="scale(0.015625)"/>
      <path id="PinyonScript-Regular-61" d="M 322 -6 
Q 122 -6 29 103 
Q -63 213 -63 403 
Q -63 613 26 850 
Q 116 1088 322 1322 
Q 744 1813 1111 1977 
Q 1478 2141 1800 2141 
Q 1963 2141 2075 2072 
Q 2188 2003 2188 1884 
Q 2188 1794 2150 1700 
Q 2250 1819 2320 1908 
Q 2391 1997 2456 2078 
Q 2538 2053 2644 2053 
Q 2688 2053 2763 2056 
Q 2838 2059 2878 2066 
L 1825 797 
Q 1625 559 1537 411 
Q 1450 263 1450 181 
Q 1450 81 1547 81 
Q 1716 81 1897 179 
Q 2078 278 2253 433 
Q 2428 588 2581 755 
Q 2734 922 2851 1064 
Q 2969 1206 3031 1275 
L 3094 1222 
Q 3025 1144 2900 997 
Q 2775 850 2614 678 
Q 2453 506 2267 350 
Q 2081 194 1886 94 
Q 1691 -6 1500 -6 
Q 1188 -6 1188 188 
Q 1188 259 1214 332 
Q 1241 406 1322 523 
Q 1403 641 1566 838 
L 1534 850 
Q 1153 381 829 187 
Q 506 -6 322 -6 
z
M 334 88 
Q 534 88 862 320 
Q 1191 553 1650 1097 
Q 1725 1188 1789 1266 
Q 1853 1344 1913 1413 
Q 1984 1522 2042 1640 
Q 2100 1759 2100 1856 
Q 2100 1953 2031 1998 
Q 1963 2044 1881 2044 
Q 1728 2044 1386 1823 
Q 1044 1603 634 1119 
Q 400 838 297 619 
Q 194 400 194 250 
Q 194 88 334 88 
z
" transform="scale(0.015625)"/>
      <path id="PinyonScript-Regular-6e" d="M 2053 -6 
Q 1881 -6 1754 59 
Q 1628 125 1628 234 
Q 1628 319 1665 433 
Q 1703 547 1845 747 
Q 1988 947 2294 1291 
Q 2541 1569 2634 1722 
Q 2728 1875 2728 1950 
Q 2728 1994 2697 2028 
Q 2666 2063 2578 2063 
Q 2516 2063 2411 2022 
Q 2306 1981 2163 1884 
Q 1916 1716 1556 1364 
Q 1197 1013 731 441 
L 441 59 
Q 359 75 259 75 
Q 147 75 73 64 
Q 0 53 -38 44 
Q 313 550 547 883 
Q 781 1216 923 1416 
Q 1066 1616 1136 1720 
Q 1206 1825 1231 1870 
Q 1256 1916 1259 1944 
Q 1266 2034 1191 2034 
Q 1147 2034 1053 1946 
Q 959 1859 842 1728 
Q 725 1597 612 1458 
Q 500 1319 416 1216 
Q 394 1203 359 1231 
Q 341 1259 350 1269 
Q 441 1366 555 1511 
Q 669 1656 794 1801 
Q 919 1947 1050 2044 
Q 1181 2141 1303 2141 
Q 1394 2141 1483 2102 
Q 1572 2063 1556 1916 
Q 1553 1866 1525 1789 
Q 1497 1713 1413 1594 
L 756 681 
L 772 647 
Q 1259 1197 1586 1511 
Q 1913 1825 2138 1975 
Q 2288 2075 2402 2108 
Q 2516 2141 2613 2141 
Q 2816 2141 2898 2042 
Q 2981 1944 2978 1825 
Q 2975 1700 2895 1526 
Q 2816 1353 2623 1095 
Q 2431 838 2084 459 
Q 1925 291 1892 242 
Q 1859 194 1859 153 
Q 1859 122 1923 101 
Q 1988 81 2084 81 
Q 2275 81 2475 190 
Q 2675 300 2864 464 
Q 3053 628 3209 800 
Q 3366 972 3470 1103 
Q 3575 1234 3606 1269 
L 3672 1216 
Q 3634 1175 3526 1040 
Q 3419 906 3256 729 
Q 3094 553 2897 384 
Q 2700 216 2484 105 
Q 2269 -6 2053 -6 
z
" transform="scale(0.015625)"/>
      <path id="PinyonScript-Regular-73" d="M 175 -72 
Q 78 -72 -75 -47 
Q -228 -22 -348 59 
Q -469 141 -469 313 
Q -469 469 -373 570 
Q -278 672 -162 722 
Q -47 772 9 772 
Q 138 772 138 653 
Q 134 603 67 561 
Q 0 519 -81 519 
Q -119 519 -155 545 
Q -191 572 -213 584 
Q -247 550 -317 483 
Q -388 416 -388 309 
Q -388 191 -292 133 
Q -197 75 -78 58 
Q 41 41 103 41 
Q 234 41 431 145 
Q 628 250 798 497 
Q 969 744 1019 1169 
Q 1034 1319 1048 1584 
Q 1063 1850 1147 2094 
Q 1150 2103 1150 2122 
Q 1031 1975 893 1806 
Q 756 1638 629 1481 
Q 503 1325 413 1216 
Q 350 1141 322 1119 
Q 294 1097 297 1097 
Q 294 1097 273 1095 
Q 253 1094 241 1116 
Q 234 1131 270 1175 
Q 306 1219 347 1269 
Q 419 1350 569 1528 
Q 719 1706 886 1909 
Q 1053 2113 1175 2269 
Q 1194 2363 1231 2438 
Q 1269 2513 1338 2513 
Q 1463 2513 1463 2409 
Q 1459 2350 1319 2188 
Q 1234 2088 1228 2058 
Q 1222 2028 1222 1981 
Q 1219 1869 1245 1701 
Q 1272 1534 1303 1351 
Q 1334 1169 1344 1003 
Q 1353 756 1288 575 
Q 1338 569 1372 569 
Q 1472 569 1601 659 
Q 1731 750 1859 875 
Q 1988 1000 2083 1112 
Q 2178 1225 2209 1269 
L 2278 1216 
Q 2225 1159 2122 1042 
Q 2019 925 1887 798 
Q 1756 672 1620 583 
Q 1484 494 1363 494 
Q 1334 494 1309 495 
Q 1284 497 1259 500 
Q 1113 175 825 51 
Q 538 -72 175 -72 
z
" transform="scale(0.015625)"/>
      <path id="PinyonScript-Regular-20" transform="scale(0.015625)"/>
      <path id="PinyonScript-Regular-50" d="M 663 -6 
Q 322 -6 161 119 
Q 0 244 0 422 
Q 0 559 98 620 
Q 197 681 294 681 
Q 341 681 395 647 
Q 450 613 450 538 
Q 450 478 397 429 
Q 344 381 272 381 
Q 231 381 193 387 
Q 156 394 125 413 
L 125 397 
Q 125 259 259 170 
Q 394 81 622 81 
Q 822 81 1005 150 
Q 1188 219 1408 412 
Q 1628 606 1929 978 
Q 2231 1350 2672 1956 
Q 2497 2072 2497 2231 
Q 2497 2372 2619 2462 
Q 2741 2553 2875 2553 
Q 2934 2553 2943 2537 
Q 2953 2522 2953 2522 
Q 2953 2503 2916 2497 
Q 2772 2475 2697 2384 
Q 2622 2294 2622 2172 
Q 2622 2100 2725 2031 
L 2769 2091 
Q 3109 2550 3414 2897 
Q 3719 3244 4020 3517 
Q 4322 3791 4656 4019 
L 4784 4103 
Q 4606 4213 4328 4269 
Q 4050 4325 3669 4325 
Q 3072 4325 2539 4156 
Q 2006 3988 1600 3714 
Q 1194 3441 967 3117 
Q 741 2794 750 2484 
Q 759 2228 900 2128 
Q 1041 2028 1175 2028 
Q 1400 2028 1628 2165 
Q 1856 2303 2064 2518 
Q 2272 2734 2437 2975 
Q 2603 3216 2704 3430 
Q 2806 3644 2822 3772 
Q 2831 3878 2866 3878 
Q 2897 3878 2897 3781 
Q 2906 3509 2790 3192 
Q 2675 2875 2448 2590 
Q 2222 2306 1897 2125 
Q 1572 1944 1166 1944 
Q 991 1944 825 2087 
Q 659 2231 653 2466 
Q 644 2772 812 3056 
Q 981 3341 1281 3584 
Q 1581 3828 1970 4009 
Q 2359 4191 2793 4292 
Q 3228 4394 3663 4394 
Q 4053 4394 4359 4334 
Q 4666 4275 4891 4166 
Q 5084 4275 5232 4325 
Q 5381 4375 5456 4375 
Q 5516 4375 5519 4344 
Q 5519 4325 5505 4312 
Q 5491 4300 5438 4294 
Q 5231 4253 5003 4106 
Q 5256 3956 5381 3747 
Q 5506 3538 5506 3294 
Q 5506 3003 5337 2731 
Q 5169 2459 4881 2243 
Q 4594 2028 4233 1901 
Q 3872 1775 3488 1775 
Q 3241 1775 3031 1819 
Q 2519 1131 2094 732 
Q 1669 334 1314 164 
Q 959 -6 663 -6 
z
M 3475 1856 
Q 3725 1856 4012 1961 
Q 4300 2066 4554 2272 
Q 4809 2478 4970 2786 
Q 5131 3094 5131 3497 
Q 5131 3828 4891 4028 
Q 4550 3781 4175 3337 
Q 3800 2894 3381 2306 
Q 3306 2197 3234 2095 
Q 3163 1994 3091 1897 
Q 3284 1856 3475 1856 
z
" transform="scale(0.015625)"/>
      <path id="PinyonScript-Regular-65" d="M 578 -19 
Q 272 -19 140 140 
Q 9 300 3 531 
Q 0 700 72 906 
Q 144 1113 222 1222 
Q 453 1544 722 1747 
Q 991 1950 1248 2045 
Q 1506 2141 1703 2141 
Q 1894 2141 1970 2078 
Q 2047 2016 2050 1934 
Q 2059 1813 1920 1652 
Q 1781 1491 1434 1303 
Q 1088 1116 466 909 
Q 356 734 318 607 
Q 281 481 281 381 
Q 281 234 379 153 
Q 478 72 613 72 
Q 906 72 1164 183 
Q 1422 294 1636 462 
Q 1850 631 2012 804 
Q 2175 978 2278 1108 
Q 2381 1238 2416 1269 
L 2481 1216 
Q 2434 1175 2323 1037 
Q 2213 900 2042 722 
Q 1872 544 1650 375 
Q 1428 206 1158 93 
Q 888 -19 578 -19 
z
M 538 1019 
Q 1144 1231 1494 1457 
Q 1844 1684 1844 1891 
Q 1844 2066 1681 2066 
Q 1472 2066 1228 1841 
Q 984 1616 659 1188 
Q 591 1100 538 1019 
z
" transform="scale(0.015625)"/>
      <path id="PinyonScript-Regular-75" d="M 197 -6 
Q -6 -6 -93 94 
Q -181 194 -184 309 
Q -197 541 -11 812 
Q 175 1084 522 1491 
Q 644 1634 776 1800 
Q 909 1966 1053 2122 
Q 1159 2103 1303 2103 
Q 1347 2103 1425 2106 
Q 1503 2109 1528 2113 
Q 1263 1828 997 1512 
Q 731 1197 522 941 
Q 453 856 343 729 
Q 234 603 151 461 
Q 69 319 72 184 
Q 72 141 103 106 
Q 134 72 222 72 
Q 284 72 417 112 
Q 550 153 700 250 
Q 909 391 1175 636 
Q 1441 881 1753 1269 
Q 1822 1353 1865 1406 
Q 1909 1459 1947 1503 
Q 2056 1638 2184 1791 
Q 2313 1944 2463 2122 
Q 2563 2113 2603 2108 
Q 2644 2103 2713 2103 
Q 2859 2103 2938 2113 
Q 2753 1913 2517 1628 
Q 2281 1344 2050 1058 
Q 1819 772 1644 556 
Q 1494 381 1455 317 
Q 1416 253 1416 194 
Q 1419 156 1442 118 
Q 1466 81 1578 81 
Q 1744 81 1939 190 
Q 2134 300 2326 464 
Q 2519 628 2686 800 
Q 2853 972 2968 1103 
Q 3084 1234 3119 1269 
L 3181 1216 
Q 3144 1175 3023 1040 
Q 2903 906 2728 729 
Q 2553 553 2351 384 
Q 2150 216 1944 105 
Q 1738 -6 1556 -6 
Q 1431 -6 1347 64 
Q 1263 134 1259 259 
Q 1256 372 1292 494 
Q 1328 616 1416 769 
Q 1025 347 716 159 
Q 556 63 425 28 
Q 294 -6 197 -6 
z
" transform="scale(0.015625)"/>
      <path id="PinyonScript-Regular-72" d="M 850 -6 
Q 675 -6 565 83 
Q 456 172 456 316 
Q 456 566 822 919 
Q 1188 1272 1813 1691 
Q 1494 1744 1264 1797 
Q 1034 1850 897 1913 
Q 834 1788 715 1606 
Q 597 1425 413 1216 
Q 288 1069 225 1009 
Q 163 950 139 939 
Q 116 928 113 922 
Q 103 919 101 941 
Q 100 963 103 975 
Q 103 988 150 1034 
Q 197 1081 347 1269 
Q 503 1466 625 1644 
Q 747 1822 813 1956 
Q 700 2028 681 2116 
Q 656 2266 740 2387 
Q 825 2509 959 2509 
Q 1125 2509 1125 2366 
Q 1125 2294 1097 2244 
Q 1069 2194 1041 2147 
Q 984 2081 984 1981 
Q 984 1950 1092 1914 
Q 1200 1878 1358 1845 
Q 1516 1813 1669 1789 
Q 1822 1766 1909 1759 
Q 1969 1756 1983 1739 
Q 1997 1722 1997 1713 
Q 1997 1681 1906 1609 
Q 1734 1478 1553 1292 
Q 1372 1106 1215 907 
Q 1059 709 962 534 
Q 866 359 866 247 
Q 866 100 984 100 
Q 1138 100 1319 203 
Q 1500 306 1686 462 
Q 1872 619 2036 786 
Q 2200 953 2319 1086 
Q 2438 1219 2484 1269 
L 2547 1216 
Q 2478 1150 2351 1008 
Q 2225 866 2056 692 
Q 1888 519 1689 359 
Q 1491 200 1278 97 
Q 1066 -6 850 -6 
z
" transform="scale(0.015625)"/>
      <path id="PinyonScript-Regular-79" d="M -1463 -2459 
Q -1597 -2459 -1665 -2390 
Q -1734 -2322 -1734 -2250 
Q -1734 -2081 -1539 -1876 
Q -1344 -1672 -861 -1403 
Q -378 -1134 478 -775 
Q 738 -459 1050 -59 
Q 1363 341 1750 838 
L 1716 850 
Q 1541 663 1277 464 
Q 1013 266 725 130 
Q 438 -6 184 -6 
Q -166 -6 -166 253 
Q -166 366 -127 483 
Q -88 600 26 787 
Q 141 975 369 1297 
Q 513 1472 714 1678 
Q 916 1884 1150 2122 
Q 1250 2113 1298 2108 
Q 1347 2103 1419 2103 
Q 1556 2103 1641 2113 
Q 1425 1919 1295 1783 
Q 1166 1647 1061 1523 
Q 956 1400 809 1244 
Q 738 1163 613 1025 
Q 488 888 358 733 
Q 228 578 139 440 
Q 50 303 50 219 
Q 50 116 106 95 
Q 163 75 209 75 
Q 491 75 789 236 
Q 1088 397 1363 642 
Q 1638 888 1847 1144 
Q 2166 1494 2358 1725 
Q 2550 1956 2675 2113 
Q 2709 2106 2762 2098 
Q 2816 2091 2869 2091 
Q 2909 2091 2981 2094 
Q 3053 2097 3094 2103 
L 2006 763 
Q 1709 359 1454 21 
Q 1200 -316 978 -597 
Q 1409 -391 1701 -208 
Q 1994 -25 2219 176 
Q 2444 378 2669 640 
Q 2894 903 3194 1269 
L 3259 1216 
Q 3000 903 2795 668 
Q 2591 434 2403 250 
Q 2216 66 2003 -92 
Q 1791 -250 1519 -403 
Q 1247 -556 869 -734 
Q 428 -1291 104 -1631 
Q -219 -1972 -475 -2151 
Q -731 -2331 -965 -2395 
Q -1200 -2459 -1463 -2459 
z
M -1450 -2375 
Q -1275 -2375 -1106 -2312 
Q -938 -2250 -736 -2092 
Q -534 -1934 -267 -1646 
Q 0 -1359 369 -909 
Q -344 -1213 -786 -1450 
Q -1228 -1688 -1431 -1880 
Q -1634 -2072 -1634 -2250 
Q -1634 -2284 -1590 -2329 
Q -1547 -2375 -1450 -2375 
z
" transform="scale(0.015625)"/>
      <path id="PinyonScript-Regular-74" d="M 131 -6 
Q -41 -6 -127 62 
Q -213 131 -213 238 
Q -213 322 -191 405 
Q -169 488 -97 616 
Q -25 744 122 961 
Q 269 1178 519 1531 
L 1325 2666 
L 1078 2666 
Q 984 2666 984 2706 
Q 984 2756 1103 2756 
L 1388 2756 
L 1966 3569 
Q 2006 3563 2073 3558 
Q 2141 3553 2266 3556 
Q 2328 3556 2400 3569 
L 1797 2756 
L 2603 2756 
Q 2691 2756 2691 2713 
Q 2691 2666 2613 2666 
L 1728 2666 
L 903 1553 
Q 609 1159 431 906 
Q 253 653 161 506 
Q 69 359 36 287 
Q 3 216 3 181 
Q 3 88 159 81 
Q 375 84 604 223 
Q 834 363 1046 564 
Q 1259 766 1428 961 
Q 1597 1156 1691 1269 
L 1759 1216 
Q 1669 1109 1494 909 
Q 1319 709 1092 498 
Q 866 288 619 141 
Q 372 -6 131 -6 
z
" transform="scale(0.015625)"/>
      <path id="PinyonScript-Regular-6d" d="M 3347 -16 
Q 3178 -16 3053 51 
Q 2928 119 2928 228 
Q 2928 313 2970 428 
Q 3013 544 3159 745 
Q 3306 947 3613 1291 
Q 3856 1569 3953 1722 
Q 4050 1875 4050 1950 
Q 4050 1994 4015 2028 
Q 3981 2063 3891 2063 
Q 3816 2063 3700 2009 
Q 3584 1956 3381 1803 
Q 3138 1619 2808 1283 
Q 2478 947 2078 441 
L 1788 59 
Q 1713 75 1609 75 
Q 1500 75 1423 64 
Q 1347 53 1313 44 
Q 1497 269 1598 394 
Q 1700 519 1761 595 
Q 1822 672 1878 745 
Q 1934 819 2025 937 
Q 2116 1056 2281 1275 
Q 2463 1513 2552 1648 
Q 2641 1784 2672 1854 
Q 2703 1925 2703 1966 
Q 2703 2063 2550 2063 
Q 2472 2063 2340 2008 
Q 2209 1953 2016 1800 
Q 1800 1628 1473 1290 
Q 1147 953 728 441 
L 438 59 
Q 394 69 348 72 
Q 303 75 259 75 
Q 147 75 70 64 
Q -6 53 -38 44 
Q 313 550 547 883 
Q 781 1216 923 1416 
Q 1066 1616 1136 1720 
Q 1206 1825 1231 1870 
Q 1256 1916 1259 1944 
Q 1266 2034 1191 2034 
Q 1147 2034 1053 1946 
Q 959 1859 842 1728 
Q 725 1597 612 1458 
Q 500 1319 416 1216 
Q 394 1203 359 1231 
Q 341 1259 350 1269 
Q 441 1366 555 1511 
Q 669 1656 794 1801 
Q 919 1947 1050 2044 
Q 1181 2141 1303 2141 
Q 1394 2141 1483 2102 
Q 1572 2063 1556 1916 
Q 1553 1866 1525 1789 
Q 1497 1713 1413 1594 
L 756 681 
L 772 647 
Q 1209 1153 1512 1461 
Q 1816 1769 2006 1903 
Q 2188 2041 2323 2091 
Q 2459 2141 2584 2141 
Q 2784 2141 2870 2042 
Q 2956 1944 2950 1825 
Q 2944 1713 2916 1622 
Q 2888 1531 2784 1372 
Q 3056 1650 3272 1825 
Q 3506 2016 3654 2078 
Q 3803 2141 3931 2141 
Q 4134 2141 4217 2042 
Q 4300 1944 4297 1825 
Q 4294 1700 4214 1526 
Q 4134 1353 3942 1095 
Q 3750 838 3403 459 
Q 3241 291 3209 242 
Q 3178 194 3178 153 
L 3156 150 
Q 3156 75 3384 75 
Q 3538 75 3719 184 
Q 3900 294 4083 459 
Q 4266 625 4425 798 
Q 4584 972 4693 1103 
Q 4803 1234 4834 1269 
L 4900 1216 
Q 4863 1175 4748 1039 
Q 4634 903 4468 726 
Q 4303 550 4109 379 
Q 3916 209 3719 96 
Q 3522 -16 3347 -16 
z
" transform="scale(0.015625)"/>
     </defs>
     <use xlink:href="#PinyonScript-Regular-53"/>
     <use xlink:href="#PinyonScript-Regular-61" x="51.416016"/>
     <use xlink:href="#PinyonScript-Regular-6e" x="93.212891"/>
     <use xlink:href="#PinyonScript-Regular-73" x="144.091797"/>
     <use xlink:href="#PinyonScript-Regular-20" x="173.193359"/>
     <use xlink:href="#PinyonScript-Regular-50" x="197.753906"/>
     <use xlink:href="#PinyonScript-Regular-65" x="260.693359"/>
     <use xlink:href="#PinyonScript-Regular-75" x="292.96875"/>
     <use xlink:href="#PinyonScript-Regular-72" x="336.181641"/>
     <use xlink:href="#PinyonScript-Regular-20" x="369.482422"/>
     <use xlink:href="#PinyonScript-Regular-53" x="394.042969"/>
     <use xlink:href="#PinyonScript-Regular-79" x="445.458984"/>
     <use xlink:href="#PinyonScript-Regular-73" x="489.892578"/>
     <use xlink:href="#PinyonScript-Regular-74" x="518.994141"/>
     <use xlink:href="#PinyonScript-Regular-65" x="539.941406"/>
     <use xlink:href="#PinyonScript-Regular-6d" x="572.216797"/>
     <use xlink:href="#PinyonScript-Regular-73" x="642.285156"/>
    </g>
   </g>
  </g>
 </g>
</svg>
